<mxfile host="Electron" modified="2023-09-02T01:09:38.490Z" agent="Mozilla/5.0 (Windows NT 10.0; Win64; x64) AppleWebKit/537.36 (KHTML, like Gecko) draw.io/21.6.8 Chrome/114.0.5735.289 Electron/25.5.0 Safari/537.36" etag="GY_uzuzAVu27of2BiAwA" version="21.6.8" type="device">
  <diagram name="PÃ¡gina-1" id="3LCqLbfdzPO18ef4debY">
    <mxGraphModel dx="1600" dy="1624" grid="0" gridSize="10" guides="1" tooltips="1" connect="1" arrows="1" fold="1" page="1" pageScale="1" pageWidth="1100" pageHeight="850" math="0" shadow="0">
      <root>
        <mxCell id="0" />
        <mxCell id="1" parent="0" />
        <mxCell id="9hNJUhvh3VTDX919A3ip-25" value="Providers microservice" style="swimlane;startSize=23;" parent="1" vertex="1">
          <mxGeometry x="340" y="-540" width="880" height="540" as="geometry" />
        </mxCell>
        <mxCell id="9hNJUhvh3VTDX919A3ip-12" value="Vehicle" style="swimlane;fontStyle=1;align=center;verticalAlign=top;childLayout=stackLayout;horizontal=1;startSize=26;horizontalStack=0;resizeParent=1;resizeParentMax=0;resizeLast=0;collapsible=1;marginBottom=0;whiteSpace=wrap;html=1;" parent="9hNJUhvh3VTDX919A3ip-25" vertex="1">
          <mxGeometry x="39.25" y="40" width="200" height="294" as="geometry" />
        </mxCell>
        <mxCell id="9hNJUhvh3VTDX919A3ip-13" value="+ vehicle_ID: long" style="text;strokeColor=none;fillColor=none;align=left;verticalAlign=top;spacingLeft=4;spacingRight=4;overflow=hidden;rotatable=0;points=[[0,0.5],[1,0.5]];portConstraint=eastwest;whiteSpace=wrap;html=1;" parent="9hNJUhvh3VTDX919A3ip-12" vertex="1">
          <mxGeometry y="26" width="200" height="26" as="geometry" />
        </mxCell>
        <mxCell id="9hNJUhvh3VTDX919A3ip-16" value="+ identification: String (50)" style="text;strokeColor=none;fillColor=none;align=left;verticalAlign=top;spacingLeft=4;spacingRight=4;overflow=hidden;rotatable=0;points=[[0,0.5],[1,0.5]];portConstraint=eastwest;whiteSpace=wrap;html=1;" parent="9hNJUhvh3VTDX919A3ip-12" vertex="1">
          <mxGeometry y="52" width="200" height="26" as="geometry" />
        </mxCell>
        <mxCell id="9hNJUhvh3VTDX919A3ip-17" value="+ name: String (50)" style="text;strokeColor=none;fillColor=none;align=left;verticalAlign=top;spacingLeft=4;spacingRight=4;overflow=hidden;rotatable=0;points=[[0,0.5],[1,0.5]];portConstraint=eastwest;whiteSpace=wrap;html=1;" parent="9hNJUhvh3VTDX919A3ip-12" vertex="1">
          <mxGeometry y="78" width="200" height="26" as="geometry" />
        </mxCell>
        <mxCell id="9hNJUhvh3VTDX919A3ip-18" value="+&amp;nbsp;lastname: String (50)" style="text;strokeColor=none;fillColor=none;align=left;verticalAlign=top;spacingLeft=4;spacingRight=4;overflow=hidden;rotatable=0;points=[[0,0.5],[1,0.5]];portConstraint=eastwest;whiteSpace=wrap;html=1;" parent="9hNJUhvh3VTDX919A3ip-12" vertex="1">
          <mxGeometry y="104" width="200" height="26" as="geometry" />
        </mxCell>
        <mxCell id="9hNJUhvh3VTDX919A3ip-19" value="+&amp;nbsp;vehicle_identification: String (50)" style="text;strokeColor=none;fillColor=none;align=left;verticalAlign=top;spacingLeft=4;spacingRight=4;overflow=hidden;rotatable=0;points=[[0,0.5],[1,0.5]];portConstraint=eastwest;whiteSpace=wrap;html=1;" parent="9hNJUhvh3VTDX919A3ip-12" vertex="1">
          <mxGeometry y="130" width="200" height="26" as="geometry" />
        </mxCell>
        <mxCell id="9hNJUhvh3VTDX919A3ip-14" value="" style="line;strokeWidth=1;fillColor=none;align=left;verticalAlign=middle;spacingTop=-1;spacingLeft=3;spacingRight=3;rotatable=0;labelPosition=right;points=[];portConstraint=eastwest;strokeColor=inherit;" parent="9hNJUhvh3VTDX919A3ip-12" vertex="1">
          <mxGeometry y="156" width="200" height="8" as="geometry" />
        </mxCell>
        <mxCell id="9hNJUhvh3VTDX919A3ip-15" value="+ Create(POST): Create vehicle" style="text;strokeColor=none;fillColor=none;align=left;verticalAlign=top;spacingLeft=4;spacingRight=4;overflow=hidden;rotatable=0;points=[[0,0.5],[1,0.5]];portConstraint=eastwest;whiteSpace=wrap;html=1;" parent="9hNJUhvh3VTDX919A3ip-12" vertex="1">
          <mxGeometry y="164" width="200" height="26" as="geometry" />
        </mxCell>
        <mxCell id="9hNJUhvh3VTDX919A3ip-21" value="+ List(GET): FindyById" style="text;strokeColor=none;fillColor=none;align=left;verticalAlign=top;spacingLeft=4;spacingRight=4;overflow=hidden;rotatable=0;points=[[0,0.5],[1,0.5]];portConstraint=eastwest;whiteSpace=wrap;html=1;" parent="9hNJUhvh3VTDX919A3ip-12" vertex="1">
          <mxGeometry y="190" width="200" height="26" as="geometry" />
        </mxCell>
        <mxCell id="9hNJUhvh3VTDX919A3ip-20" value="+ Modify(PUT):Modify object" style="text;strokeColor=none;fillColor=none;align=left;verticalAlign=top;spacingLeft=4;spacingRight=4;overflow=hidden;rotatable=0;points=[[0,0.5],[1,0.5]];portConstraint=eastwest;whiteSpace=wrap;html=1;" parent="9hNJUhvh3VTDX919A3ip-12" vertex="1">
          <mxGeometry y="216" width="200" height="26" as="geometry" />
        </mxCell>
        <mxCell id="9hNJUhvh3VTDX919A3ip-22" value="+ Modify(PATCH): Modify attribute" style="text;strokeColor=none;fillColor=none;align=left;verticalAlign=top;spacingLeft=4;spacingRight=4;overflow=hidden;rotatable=0;points=[[0,0.5],[1,0.5]];portConstraint=eastwest;whiteSpace=wrap;html=1;" parent="9hNJUhvh3VTDX919A3ip-12" vertex="1">
          <mxGeometry y="242" width="200" height="26" as="geometry" />
        </mxCell>
        <mxCell id="9hNJUhvh3VTDX919A3ip-23" value="+ Delete(DELETE): Delete objects" style="text;strokeColor=none;fillColor=none;align=left;verticalAlign=top;spacingLeft=4;spacingRight=4;overflow=hidden;rotatable=0;points=[[0,0.5],[1,0.5]];portConstraint=eastwest;whiteSpace=wrap;html=1;" parent="9hNJUhvh3VTDX919A3ip-12" vertex="1">
          <mxGeometry y="268" width="200" height="26" as="geometry" />
        </mxCell>
        <mxCell id="9hNJUhvh3VTDX919A3ip-39" value="Carrier" style="swimlane;fontStyle=1;align=center;verticalAlign=top;childLayout=stackLayout;horizontal=1;startSize=26;horizontalStack=0;resizeParent=1;resizeParentMax=0;resizeLast=0;collapsible=1;marginBottom=0;whiteSpace=wrap;html=1;" parent="9hNJUhvh3VTDX919A3ip-25" vertex="1">
          <mxGeometry x="342.25" y="40" width="200" height="242" as="geometry" />
        </mxCell>
        <mxCell id="9hNJUhvh3VTDX919A3ip-40" value="+ carrier_ID: long" style="text;strokeColor=none;fillColor=none;align=left;verticalAlign=top;spacingLeft=4;spacingRight=4;overflow=hidden;rotatable=0;points=[[0,0.5],[1,0.5]];portConstraint=eastwest;whiteSpace=wrap;html=1;" parent="9hNJUhvh3VTDX919A3ip-39" vertex="1">
          <mxGeometry y="26" width="200" height="26" as="geometry" />
        </mxCell>
        <mxCell id="9hNJUhvh3VTDX919A3ip-41" value="+ NIT: INT" style="text;strokeColor=none;fillColor=none;align=left;verticalAlign=top;spacingLeft=4;spacingRight=4;overflow=hidden;rotatable=0;points=[[0,0.5],[1,0.5]];portConstraint=eastwest;whiteSpace=wrap;html=1;" parent="9hNJUhvh3VTDX919A3ip-39" vertex="1">
          <mxGeometry y="52" width="200" height="26" as="geometry" />
        </mxCell>
        <mxCell id="9hNJUhvh3VTDX919A3ip-42" value="+ company_name: String (50)" style="text;strokeColor=none;fillColor=none;align=left;verticalAlign=top;spacingLeft=4;spacingRight=4;overflow=hidden;rotatable=0;points=[[0,0.5],[1,0.5]];portConstraint=eastwest;whiteSpace=wrap;html=1;" parent="9hNJUhvh3VTDX919A3ip-39" vertex="1">
          <mxGeometry y="78" width="200" height="26" as="geometry" />
        </mxCell>
        <mxCell id="9hNJUhvh3VTDX919A3ip-45" value="" style="line;strokeWidth=1;fillColor=none;align=left;verticalAlign=middle;spacingTop=-1;spacingLeft=3;spacingRight=3;rotatable=0;labelPosition=right;points=[];portConstraint=eastwest;strokeColor=inherit;" parent="9hNJUhvh3VTDX919A3ip-39" vertex="1">
          <mxGeometry y="104" width="200" height="8" as="geometry" />
        </mxCell>
        <mxCell id="9hNJUhvh3VTDX919A3ip-46" value="+ Create(POST): Create vehicle" style="text;strokeColor=none;fillColor=none;align=left;verticalAlign=top;spacingLeft=4;spacingRight=4;overflow=hidden;rotatable=0;points=[[0,0.5],[1,0.5]];portConstraint=eastwest;whiteSpace=wrap;html=1;" parent="9hNJUhvh3VTDX919A3ip-39" vertex="1">
          <mxGeometry y="112" width="200" height="26" as="geometry" />
        </mxCell>
        <mxCell id="9hNJUhvh3VTDX919A3ip-47" value="+ List(GET): FindyById" style="text;strokeColor=none;fillColor=none;align=left;verticalAlign=top;spacingLeft=4;spacingRight=4;overflow=hidden;rotatable=0;points=[[0,0.5],[1,0.5]];portConstraint=eastwest;whiteSpace=wrap;html=1;" parent="9hNJUhvh3VTDX919A3ip-39" vertex="1">
          <mxGeometry y="138" width="200" height="26" as="geometry" />
        </mxCell>
        <mxCell id="9hNJUhvh3VTDX919A3ip-48" value="+ Modify(PUT):Modify object" style="text;strokeColor=none;fillColor=none;align=left;verticalAlign=top;spacingLeft=4;spacingRight=4;overflow=hidden;rotatable=0;points=[[0,0.5],[1,0.5]];portConstraint=eastwest;whiteSpace=wrap;html=1;" parent="9hNJUhvh3VTDX919A3ip-39" vertex="1">
          <mxGeometry y="164" width="200" height="26" as="geometry" />
        </mxCell>
        <mxCell id="9hNJUhvh3VTDX919A3ip-49" value="+ Modify(PATCH): Modify attribute" style="text;strokeColor=none;fillColor=none;align=left;verticalAlign=top;spacingLeft=4;spacingRight=4;overflow=hidden;rotatable=0;points=[[0,0.5],[1,0.5]];portConstraint=eastwest;whiteSpace=wrap;html=1;" parent="9hNJUhvh3VTDX919A3ip-39" vertex="1">
          <mxGeometry y="190" width="200" height="26" as="geometry" />
        </mxCell>
        <mxCell id="9hNJUhvh3VTDX919A3ip-50" value="+ Delete(DELETE): Delete objects" style="text;strokeColor=none;fillColor=none;align=left;verticalAlign=top;spacingLeft=4;spacingRight=4;overflow=hidden;rotatable=0;points=[[0,0.5],[1,0.5]];portConstraint=eastwest;whiteSpace=wrap;html=1;" parent="9hNJUhvh3VTDX919A3ip-39" vertex="1">
          <mxGeometry y="216" width="200" height="26" as="geometry" />
        </mxCell>
        <mxCell id="9hNJUhvh3VTDX919A3ip-143" value="Addressees_provider" style="swimlane;fontStyle=1;align=center;verticalAlign=top;childLayout=stackLayout;horizontal=1;startSize=26;horizontalStack=0;resizeParent=1;resizeParentMax=0;resizeLast=0;collapsible=1;marginBottom=0;whiteSpace=wrap;html=1;" parent="9hNJUhvh3VTDX919A3ip-25" vertex="1">
          <mxGeometry x="640.38" y="40" width="200" height="482" as="geometry" />
        </mxCell>
        <mxCell id="9hNJUhvh3VTDX919A3ip-144" value="+&amp;nbsp;addressees_providers_ID: long" style="text;strokeColor=none;fillColor=none;align=left;verticalAlign=top;spacingLeft=4;spacingRight=4;overflow=hidden;rotatable=0;points=[[0,0.5],[1,0.5]];portConstraint=eastwest;whiteSpace=wrap;html=1;" parent="9hNJUhvh3VTDX919A3ip-143" vertex="1">
          <mxGeometry y="26" width="200" height="26" as="geometry" />
        </mxCell>
        <mxCell id="9hNJUhvh3VTDX919A3ip-145" value="+ NIT: INT" style="text;strokeColor=none;fillColor=none;align=left;verticalAlign=top;spacingLeft=4;spacingRight=4;overflow=hidden;rotatable=0;points=[[0,0.5],[1,0.5]];portConstraint=eastwest;whiteSpace=wrap;html=1;" parent="9hNJUhvh3VTDX919A3ip-143" vertex="1">
          <mxGeometry y="52" width="200" height="26" as="geometry" />
        </mxCell>
        <mxCell id="9hNJUhvh3VTDX919A3ip-146" value="+ company_name: String (50)" style="text;strokeColor=none;fillColor=none;align=left;verticalAlign=top;spacingLeft=4;spacingRight=4;overflow=hidden;rotatable=0;points=[[0,0.5],[1,0.5]];portConstraint=eastwest;whiteSpace=wrap;html=1;" parent="9hNJUhvh3VTDX919A3ip-143" vertex="1">
          <mxGeometry y="78" width="200" height="26" as="geometry" />
        </mxCell>
        <mxCell id="9hNJUhvh3VTDX919A3ip-147" value="+ country: String (50)" style="text;strokeColor=none;fillColor=none;align=left;verticalAlign=middle;spacingLeft=4;spacingRight=4;overflow=hidden;points=[[0,0.5],[1,0.5]];portConstraint=eastwest;rotatable=0;whiteSpace=wrap;html=1;" parent="9hNJUhvh3VTDX919A3ip-143" vertex="1">
          <mxGeometry y="104" width="200" height="30" as="geometry" />
        </mxCell>
        <mxCell id="9hNJUhvh3VTDX919A3ip-148" value="+ department: String (50)" style="text;strokeColor=none;fillColor=none;align=left;verticalAlign=middle;spacingLeft=4;spacingRight=4;overflow=hidden;points=[[0,0.5],[1,0.5]];portConstraint=eastwest;rotatable=0;whiteSpace=wrap;html=1;" parent="9hNJUhvh3VTDX919A3ip-143" vertex="1">
          <mxGeometry y="134" width="200" height="30" as="geometry" />
        </mxCell>
        <mxCell id="9hNJUhvh3VTDX919A3ip-149" value="+ city: String (50)" style="text;strokeColor=none;fillColor=none;align=left;verticalAlign=middle;spacingLeft=4;spacingRight=4;overflow=hidden;points=[[0,0.5],[1,0.5]];portConstraint=eastwest;rotatable=0;whiteSpace=wrap;html=1;" parent="9hNJUhvh3VTDX919A3ip-143" vertex="1">
          <mxGeometry y="164" width="200" height="30" as="geometry" />
        </mxCell>
        <mxCell id="9hNJUhvh3VTDX919A3ip-150" value="+&amp;nbsp;neighborthhood: String (50)" style="text;strokeColor=none;fillColor=none;align=left;verticalAlign=middle;spacingLeft=4;spacingRight=4;overflow=hidden;points=[[0,0.5],[1,0.5]];portConstraint=eastwest;rotatable=0;whiteSpace=wrap;html=1;" parent="9hNJUhvh3VTDX919A3ip-143" vertex="1">
          <mxGeometry y="194" width="200" height="30" as="geometry" />
        </mxCell>
        <mxCell id="9hNJUhvh3VTDX919A3ip-151" value="+&amp;nbsp;address: String (50)" style="text;strokeColor=none;fillColor=none;align=left;verticalAlign=middle;spacingLeft=4;spacingRight=4;overflow=hidden;points=[[0,0.5],[1,0.5]];portConstraint=eastwest;rotatable=0;whiteSpace=wrap;html=1;" parent="9hNJUhvh3VTDX919A3ip-143" vertex="1">
          <mxGeometry y="224" width="200" height="30" as="geometry" />
        </mxCell>
        <mxCell id="9hNJUhvh3VTDX919A3ip-152" value="+&amp;nbsp;phone: String (10)" style="text;strokeColor=none;fillColor=none;align=left;verticalAlign=middle;spacingLeft=4;spacingRight=4;overflow=hidden;points=[[0,0.5],[1,0.5]];portConstraint=eastwest;rotatable=0;whiteSpace=wrap;html=1;" parent="9hNJUhvh3VTDX919A3ip-143" vertex="1">
          <mxGeometry y="254" width="200" height="30" as="geometry" />
        </mxCell>
        <mxCell id="9hNJUhvh3VTDX919A3ip-153" value="+&amp;nbsp;addresses: Boolean" style="text;strokeColor=none;fillColor=none;align=left;verticalAlign=middle;spacingLeft=4;spacingRight=4;overflow=hidden;points=[[0,0.5],[1,0.5]];portConstraint=eastwest;rotatable=0;whiteSpace=wrap;html=1;" parent="9hNJUhvh3VTDX919A3ip-143" vertex="1">
          <mxGeometry y="284" width="200" height="30" as="geometry" />
        </mxCell>
        <mxCell id="9hNJUhvh3VTDX919A3ip-154" value="+ provider: Boolean" style="text;strokeColor=none;fillColor=none;align=left;verticalAlign=middle;spacingLeft=4;spacingRight=4;overflow=hidden;points=[[0,0.5],[1,0.5]];portConstraint=eastwest;rotatable=0;whiteSpace=wrap;html=1;" parent="9hNJUhvh3VTDX919A3ip-143" vertex="1">
          <mxGeometry y="314" width="200" height="30" as="geometry" />
        </mxCell>
        <mxCell id="9hNJUhvh3VTDX919A3ip-155" value="" style="line;strokeWidth=1;fillColor=none;align=left;verticalAlign=middle;spacingTop=-1;spacingLeft=3;spacingRight=3;rotatable=0;labelPosition=right;points=[];portConstraint=eastwest;strokeColor=inherit;" parent="9hNJUhvh3VTDX919A3ip-143" vertex="1">
          <mxGeometry y="344" width="200" height="8" as="geometry" />
        </mxCell>
        <mxCell id="9hNJUhvh3VTDX919A3ip-156" value="+ Create(POST): Create vehicle" style="text;strokeColor=none;fillColor=none;align=left;verticalAlign=top;spacingLeft=4;spacingRight=4;overflow=hidden;rotatable=0;points=[[0,0.5],[1,0.5]];portConstraint=eastwest;whiteSpace=wrap;html=1;" parent="9hNJUhvh3VTDX919A3ip-143" vertex="1">
          <mxGeometry y="352" width="200" height="26" as="geometry" />
        </mxCell>
        <mxCell id="9hNJUhvh3VTDX919A3ip-157" value="+ List(GET): FindyById" style="text;strokeColor=none;fillColor=none;align=left;verticalAlign=top;spacingLeft=4;spacingRight=4;overflow=hidden;rotatable=0;points=[[0,0.5],[1,0.5]];portConstraint=eastwest;whiteSpace=wrap;html=1;" parent="9hNJUhvh3VTDX919A3ip-143" vertex="1">
          <mxGeometry y="378" width="200" height="26" as="geometry" />
        </mxCell>
        <mxCell id="9hNJUhvh3VTDX919A3ip-158" value="+ Modify(PUT):Modify object" style="text;strokeColor=none;fillColor=none;align=left;verticalAlign=top;spacingLeft=4;spacingRight=4;overflow=hidden;rotatable=0;points=[[0,0.5],[1,0.5]];portConstraint=eastwest;whiteSpace=wrap;html=1;" parent="9hNJUhvh3VTDX919A3ip-143" vertex="1">
          <mxGeometry y="404" width="200" height="26" as="geometry" />
        </mxCell>
        <mxCell id="9hNJUhvh3VTDX919A3ip-159" value="+ Modify(PATCH): Modify attribute" style="text;strokeColor=none;fillColor=none;align=left;verticalAlign=top;spacingLeft=4;spacingRight=4;overflow=hidden;rotatable=0;points=[[0,0.5],[1,0.5]];portConstraint=eastwest;whiteSpace=wrap;html=1;" parent="9hNJUhvh3VTDX919A3ip-143" vertex="1">
          <mxGeometry y="430" width="200" height="26" as="geometry" />
        </mxCell>
        <mxCell id="9hNJUhvh3VTDX919A3ip-160" value="+ Delete(DELETE): Delete objects" style="text;strokeColor=none;fillColor=none;align=left;verticalAlign=top;spacingLeft=4;spacingRight=4;overflow=hidden;rotatable=0;points=[[0,0.5],[1,0.5]];portConstraint=eastwest;whiteSpace=wrap;html=1;" parent="9hNJUhvh3VTDX919A3ip-143" vertex="1">
          <mxGeometry y="456" width="200" height="26" as="geometry" />
        </mxCell>
        <mxCell id="9hNJUhvh3VTDX919A3ip-163" value="Relation" style="endArrow=open;html=1;endSize=12;startArrow=diamondThin;startSize=14;startFill=0;edgeStyle=orthogonalEdgeStyle;rounded=0;exitX=1;exitY=0.5;exitDx=0;exitDy=0;entryX=0;entryY=0.5;entryDx=0;entryDy=0;" parent="9hNJUhvh3VTDX919A3ip-25" source="9hNJUhvh3VTDX919A3ip-19" target="9hNJUhvh3VTDX919A3ip-46" edge="1">
          <mxGeometry relative="1" as="geometry">
            <mxPoint x="352.25" y="325" as="sourcePoint" />
            <mxPoint x="512.25" y="325" as="targetPoint" />
          </mxGeometry>
        </mxCell>
        <mxCell id="9hNJUhvh3VTDX919A3ip-164" value="0..n" style="edgeLabel;resizable=0;html=1;align=left;verticalAlign=top;" parent="9hNJUhvh3VTDX919A3ip-163" connectable="0" vertex="1">
          <mxGeometry x="-1" relative="1" as="geometry" />
        </mxCell>
        <mxCell id="9hNJUhvh3VTDX919A3ip-165" value="1" style="edgeLabel;resizable=0;html=1;align=right;verticalAlign=top;" parent="9hNJUhvh3VTDX919A3ip-163" connectable="0" vertex="1">
          <mxGeometry x="1" relative="1" as="geometry" />
        </mxCell>
        <mxCell id="9hNJUhvh3VTDX919A3ip-175" value="Product microservice" style="swimlane;startSize=23;" parent="1" vertex="1">
          <mxGeometry x="1220" y="220" width="540" height="680" as="geometry" />
        </mxCell>
        <mxCell id="9hNJUhvh3VTDX919A3ip-176" value="Product" style="swimlane;fontStyle=1;align=center;verticalAlign=top;childLayout=stackLayout;horizontal=1;startSize=26;horizontalStack=0;resizeParent=1;resizeParentMax=0;resizeLast=0;collapsible=1;marginBottom=0;whiteSpace=wrap;html=1;" parent="9hNJUhvh3VTDX919A3ip-175" vertex="1">
          <mxGeometry x="39.25" y="40" width="200" height="268" as="geometry" />
        </mxCell>
        <mxCell id="9hNJUhvh3VTDX919A3ip-177" value="+ product_ID: long" style="text;strokeColor=none;fillColor=none;align=left;verticalAlign=top;spacingLeft=4;spacingRight=4;overflow=hidden;rotatable=0;points=[[0,0.5],[1,0.5]];portConstraint=eastwest;whiteSpace=wrap;html=1;" parent="9hNJUhvh3VTDX919A3ip-176" vertex="1">
          <mxGeometry y="26" width="200" height="26" as="geometry" />
        </mxCell>
        <mxCell id="9hNJUhvh3VTDX919A3ip-178" value="+ SKU: long" style="text;strokeColor=none;fillColor=none;align=left;verticalAlign=top;spacingLeft=4;spacingRight=4;overflow=hidden;rotatable=0;points=[[0,0.5],[1,0.5]];portConstraint=eastwest;whiteSpace=wrap;html=1;" parent="9hNJUhvh3VTDX919A3ip-176" vertex="1">
          <mxGeometry y="52" width="200" height="26" as="geometry" />
        </mxCell>
        <mxCell id="9hNJUhvh3VTDX919A3ip-179" value="+ short_description: String (30)" style="text;strokeColor=none;fillColor=none;align=left;verticalAlign=top;spacingLeft=4;spacingRight=4;overflow=hidden;rotatable=0;points=[[0,0.5],[1,0.5]];portConstraint=eastwest;whiteSpace=wrap;html=1;" parent="9hNJUhvh3VTDX919A3ip-176" vertex="1">
          <mxGeometry y="78" width="200" height="26" as="geometry" />
        </mxCell>
        <mxCell id="9hNJUhvh3VTDX919A3ip-180" value="+&amp;nbsp;long_description: String (100)" style="text;strokeColor=none;fillColor=none;align=left;verticalAlign=top;spacingLeft=4;spacingRight=4;overflow=hidden;rotatable=0;points=[[0,0.5],[1,0.5]];portConstraint=eastwest;whiteSpace=wrap;html=1;" parent="9hNJUhvh3VTDX919A3ip-176" vertex="1">
          <mxGeometry y="104" width="200" height="26" as="geometry" />
        </mxCell>
        <mxCell id="9hNJUhvh3VTDX919A3ip-182" value="" style="line;strokeWidth=1;fillColor=none;align=left;verticalAlign=middle;spacingTop=-1;spacingLeft=3;spacingRight=3;rotatable=0;labelPosition=right;points=[];portConstraint=eastwest;strokeColor=inherit;" parent="9hNJUhvh3VTDX919A3ip-176" vertex="1">
          <mxGeometry y="130" width="200" height="8" as="geometry" />
        </mxCell>
        <mxCell id="9hNJUhvh3VTDX919A3ip-183" value="+ Create(POST): Create vehicle" style="text;strokeColor=none;fillColor=none;align=left;verticalAlign=top;spacingLeft=4;spacingRight=4;overflow=hidden;rotatable=0;points=[[0,0.5],[1,0.5]];portConstraint=eastwest;whiteSpace=wrap;html=1;" parent="9hNJUhvh3VTDX919A3ip-176" vertex="1">
          <mxGeometry y="138" width="200" height="26" as="geometry" />
        </mxCell>
        <mxCell id="9hNJUhvh3VTDX919A3ip-184" value="+ List(GET): FindyById" style="text;strokeColor=none;fillColor=none;align=left;verticalAlign=top;spacingLeft=4;spacingRight=4;overflow=hidden;rotatable=0;points=[[0,0.5],[1,0.5]];portConstraint=eastwest;whiteSpace=wrap;html=1;" parent="9hNJUhvh3VTDX919A3ip-176" vertex="1">
          <mxGeometry y="164" width="200" height="26" as="geometry" />
        </mxCell>
        <mxCell id="9hNJUhvh3VTDX919A3ip-185" value="+ Modify(PUT):Modify object" style="text;strokeColor=none;fillColor=none;align=left;verticalAlign=top;spacingLeft=4;spacingRight=4;overflow=hidden;rotatable=0;points=[[0,0.5],[1,0.5]];portConstraint=eastwest;whiteSpace=wrap;html=1;" parent="9hNJUhvh3VTDX919A3ip-176" vertex="1">
          <mxGeometry y="190" width="200" height="26" as="geometry" />
        </mxCell>
        <mxCell id="9hNJUhvh3VTDX919A3ip-186" value="+ Modify(PATCH): Modify attribute" style="text;strokeColor=none;fillColor=none;align=left;verticalAlign=top;spacingLeft=4;spacingRight=4;overflow=hidden;rotatable=0;points=[[0,0.5],[1,0.5]];portConstraint=eastwest;whiteSpace=wrap;html=1;" parent="9hNJUhvh3VTDX919A3ip-176" vertex="1">
          <mxGeometry y="216" width="200" height="26" as="geometry" />
        </mxCell>
        <mxCell id="9hNJUhvh3VTDX919A3ip-187" value="+ Delete(DELETE): Delete objects" style="text;strokeColor=none;fillColor=none;align=left;verticalAlign=top;spacingLeft=4;spacingRight=4;overflow=hidden;rotatable=0;points=[[0,0.5],[1,0.5]];portConstraint=eastwest;whiteSpace=wrap;html=1;" parent="9hNJUhvh3VTDX919A3ip-176" vertex="1">
          <mxGeometry y="242" width="200" height="26" as="geometry" />
        </mxCell>
        <mxCell id="9hNJUhvh3VTDX919A3ip-188" value="Measurement_unit" style="swimlane;fontStyle=1;align=center;verticalAlign=top;childLayout=stackLayout;horizontal=1;startSize=26;horizontalStack=0;resizeParent=1;resizeParentMax=0;resizeLast=0;collapsible=1;marginBottom=0;whiteSpace=wrap;html=1;" parent="9hNJUhvh3VTDX919A3ip-175" vertex="1">
          <mxGeometry x="300" y="40" width="200" height="216" as="geometry" />
        </mxCell>
        <mxCell id="9hNJUhvh3VTDX919A3ip-189" value="+&amp;nbsp;measurement_unit_ID: long" style="text;strokeColor=none;fillColor=none;align=left;verticalAlign=top;spacingLeft=4;spacingRight=4;overflow=hidden;rotatable=0;points=[[0,0.5],[1,0.5]];portConstraint=eastwest;whiteSpace=wrap;html=1;" parent="9hNJUhvh3VTDX919A3ip-188" vertex="1">
          <mxGeometry y="26" width="200" height="26" as="geometry" />
        </mxCell>
        <mxCell id="9hNJUhvh3VTDX919A3ip-191" value="+ name: String (50)" style="text;strokeColor=none;fillColor=none;align=left;verticalAlign=top;spacingLeft=4;spacingRight=4;overflow=hidden;rotatable=0;points=[[0,0.5],[1,0.5]];portConstraint=eastwest;whiteSpace=wrap;html=1;" parent="9hNJUhvh3VTDX919A3ip-188" vertex="1">
          <mxGeometry y="52" width="200" height="26" as="geometry" />
        </mxCell>
        <mxCell id="9hNJUhvh3VTDX919A3ip-192" value="" style="line;strokeWidth=1;fillColor=none;align=left;verticalAlign=middle;spacingTop=-1;spacingLeft=3;spacingRight=3;rotatable=0;labelPosition=right;points=[];portConstraint=eastwest;strokeColor=inherit;" parent="9hNJUhvh3VTDX919A3ip-188" vertex="1">
          <mxGeometry y="78" width="200" height="8" as="geometry" />
        </mxCell>
        <mxCell id="9hNJUhvh3VTDX919A3ip-193" value="+ Create(POST): Create vehicle" style="text;strokeColor=none;fillColor=none;align=left;verticalAlign=top;spacingLeft=4;spacingRight=4;overflow=hidden;rotatable=0;points=[[0,0.5],[1,0.5]];portConstraint=eastwest;whiteSpace=wrap;html=1;" parent="9hNJUhvh3VTDX919A3ip-188" vertex="1">
          <mxGeometry y="86" width="200" height="26" as="geometry" />
        </mxCell>
        <mxCell id="9hNJUhvh3VTDX919A3ip-194" value="+ List(GET): FindyById" style="text;strokeColor=none;fillColor=none;align=left;verticalAlign=top;spacingLeft=4;spacingRight=4;overflow=hidden;rotatable=0;points=[[0,0.5],[1,0.5]];portConstraint=eastwest;whiteSpace=wrap;html=1;" parent="9hNJUhvh3VTDX919A3ip-188" vertex="1">
          <mxGeometry y="112" width="200" height="26" as="geometry" />
        </mxCell>
        <mxCell id="9hNJUhvh3VTDX919A3ip-195" value="+ Modify(PUT):Modify object" style="text;strokeColor=none;fillColor=none;align=left;verticalAlign=top;spacingLeft=4;spacingRight=4;overflow=hidden;rotatable=0;points=[[0,0.5],[1,0.5]];portConstraint=eastwest;whiteSpace=wrap;html=1;" parent="9hNJUhvh3VTDX919A3ip-188" vertex="1">
          <mxGeometry y="138" width="200" height="26" as="geometry" />
        </mxCell>
        <mxCell id="9hNJUhvh3VTDX919A3ip-196" value="+ Modify(PATCH): Modify attribute" style="text;strokeColor=none;fillColor=none;align=left;verticalAlign=top;spacingLeft=4;spacingRight=4;overflow=hidden;rotatable=0;points=[[0,0.5],[1,0.5]];portConstraint=eastwest;whiteSpace=wrap;html=1;" parent="9hNJUhvh3VTDX919A3ip-188" vertex="1">
          <mxGeometry y="164" width="200" height="26" as="geometry" />
        </mxCell>
        <mxCell id="9hNJUhvh3VTDX919A3ip-197" value="+ Delete(DELETE): Delete objects" style="text;strokeColor=none;fillColor=none;align=left;verticalAlign=top;spacingLeft=4;spacingRight=4;overflow=hidden;rotatable=0;points=[[0,0.5],[1,0.5]];portConstraint=eastwest;whiteSpace=wrap;html=1;" parent="9hNJUhvh3VTDX919A3ip-188" vertex="1">
          <mxGeometry y="190" width="200" height="26" as="geometry" />
        </mxCell>
        <mxCell id="9hNJUhvh3VTDX919A3ip-198" value="footprint" style="swimlane;fontStyle=1;align=center;verticalAlign=top;childLayout=stackLayout;horizontal=1;startSize=26;horizontalStack=0;resizeParent=1;resizeParentMax=0;resizeLast=0;collapsible=1;marginBottom=0;whiteSpace=wrap;html=1;" parent="9hNJUhvh3VTDX919A3ip-175" vertex="1">
          <mxGeometry x="300" y="280" width="200" height="362" as="geometry" />
        </mxCell>
        <mxCell id="9hNJUhvh3VTDX919A3ip-199" value="+&amp;nbsp;footprint_ID: long" style="text;strokeColor=none;fillColor=none;align=left;verticalAlign=top;spacingLeft=4;spacingRight=4;overflow=hidden;rotatable=0;points=[[0,0.5],[1,0.5]];portConstraint=eastwest;whiteSpace=wrap;html=1;" parent="9hNJUhvh3VTDX919A3ip-198" vertex="1">
          <mxGeometry y="26" width="200" height="26" as="geometry" />
        </mxCell>
        <mxCell id="9hNJUhvh3VTDX919A3ip-200" value="+ long: float" style="text;strokeColor=none;fillColor=none;align=left;verticalAlign=top;spacingLeft=4;spacingRight=4;overflow=hidden;rotatable=0;points=[[0,0.5],[1,0.5]];portConstraint=eastwest;whiteSpace=wrap;html=1;" parent="9hNJUhvh3VTDX919A3ip-198" vertex="1">
          <mxGeometry y="52" width="200" height="26" as="geometry" />
        </mxCell>
        <mxCell id="9hNJUhvh3VTDX919A3ip-201" value="+ high: float" style="text;strokeColor=none;fillColor=none;align=left;verticalAlign=top;spacingLeft=4;spacingRight=4;overflow=hidden;rotatable=0;points=[[0,0.5],[1,0.5]];portConstraint=eastwest;whiteSpace=wrap;html=1;" parent="9hNJUhvh3VTDX919A3ip-198" vertex="1">
          <mxGeometry y="78" width="200" height="26" as="geometry" />
        </mxCell>
        <mxCell id="9hNJUhvh3VTDX919A3ip-202" value="+ wide: float" style="text;strokeColor=none;fillColor=none;align=left;verticalAlign=middle;spacingLeft=4;spacingRight=4;overflow=hidden;points=[[0,0.5],[1,0.5]];portConstraint=eastwest;rotatable=0;whiteSpace=wrap;html=1;" parent="9hNJUhvh3VTDX919A3ip-198" vertex="1">
          <mxGeometry y="104" width="200" height="30" as="geometry" />
        </mxCell>
        <mxCell id="9hNJUhvh3VTDX919A3ip-203" value="+ weight: float" style="text;strokeColor=none;fillColor=none;align=left;verticalAlign=middle;spacingLeft=4;spacingRight=4;overflow=hidden;points=[[0,0.5],[1,0.5]];portConstraint=eastwest;rotatable=0;whiteSpace=wrap;html=1;" parent="9hNJUhvh3VTDX919A3ip-198" vertex="1">
          <mxGeometry y="134" width="200" height="30" as="geometry" />
        </mxCell>
        <mxCell id="9hNJUhvh3VTDX919A3ip-204" value="+ volume: float" style="text;strokeColor=none;fillColor=none;align=left;verticalAlign=middle;spacingLeft=4;spacingRight=4;overflow=hidden;points=[[0,0.5],[1,0.5]];portConstraint=eastwest;rotatable=0;whiteSpace=wrap;html=1;" parent="9hNJUhvh3VTDX919A3ip-198" vertex="1">
          <mxGeometry y="164" width="200" height="30" as="geometry" />
        </mxCell>
        <mxCell id="9hNJUhvh3VTDX919A3ip-210" value="" style="line;strokeWidth=1;fillColor=none;align=left;verticalAlign=middle;spacingTop=-1;spacingLeft=3;spacingRight=3;rotatable=0;labelPosition=right;points=[];portConstraint=eastwest;strokeColor=inherit;" parent="9hNJUhvh3VTDX919A3ip-198" vertex="1">
          <mxGeometry y="194" width="200" height="8" as="geometry" />
        </mxCell>
        <mxCell id="9hNJUhvh3VTDX919A3ip-211" value="+ Create(POST): Create vehicle" style="text;strokeColor=none;fillColor=none;align=left;verticalAlign=top;spacingLeft=4;spacingRight=4;overflow=hidden;rotatable=0;points=[[0,0.5],[1,0.5]];portConstraint=eastwest;whiteSpace=wrap;html=1;" parent="9hNJUhvh3VTDX919A3ip-198" vertex="1">
          <mxGeometry y="202" width="200" height="26" as="geometry" />
        </mxCell>
        <mxCell id="9hNJUhvh3VTDX919A3ip-212" value="+ List(GET): FindyById" style="text;strokeColor=none;fillColor=none;align=left;verticalAlign=top;spacingLeft=4;spacingRight=4;overflow=hidden;rotatable=0;points=[[0,0.5],[1,0.5]];portConstraint=eastwest;whiteSpace=wrap;html=1;" parent="9hNJUhvh3VTDX919A3ip-198" vertex="1">
          <mxGeometry y="228" width="200" height="26" as="geometry" />
        </mxCell>
        <mxCell id="9hNJUhvh3VTDX919A3ip-213" value="+ Modify(PUT):Modify object" style="text;strokeColor=none;fillColor=none;align=left;verticalAlign=top;spacingLeft=4;spacingRight=4;overflow=hidden;rotatable=0;points=[[0,0.5],[1,0.5]];portConstraint=eastwest;whiteSpace=wrap;html=1;" parent="9hNJUhvh3VTDX919A3ip-198" vertex="1">
          <mxGeometry y="254" width="200" height="26" as="geometry" />
        </mxCell>
        <mxCell id="9hNJUhvh3VTDX919A3ip-214" value="+ Modify(PATCH): Modify attribute" style="text;strokeColor=none;fillColor=none;align=left;verticalAlign=top;spacingLeft=4;spacingRight=4;overflow=hidden;rotatable=0;points=[[0,0.5],[1,0.5]];portConstraint=eastwest;whiteSpace=wrap;html=1;" parent="9hNJUhvh3VTDX919A3ip-198" vertex="1">
          <mxGeometry y="280" width="200" height="26" as="geometry" />
        </mxCell>
        <mxCell id="9hNJUhvh3VTDX919A3ip-215" value="+ Delete(DELETE): Delete objects" style="text;strokeColor=none;fillColor=none;align=left;verticalAlign=top;spacingLeft=4;spacingRight=4;overflow=hidden;rotatable=0;points=[[0,0.5],[1,0.5]];portConstraint=eastwest;whiteSpace=wrap;html=1;" parent="9hNJUhvh3VTDX919A3ip-198" vertex="1">
          <mxGeometry y="306" width="200" height="26" as="geometry" />
        </mxCell>
        <mxCell id="9hNJUhvh3VTDX919A3ip-289" value="+ volumre = long*high*wide" style="text;strokeColor=none;fillColor=none;align=left;verticalAlign=middle;spacingLeft=4;spacingRight=4;overflow=hidden;points=[[0,0.5],[1,0.5]];portConstraint=eastwest;rotatable=0;whiteSpace=wrap;html=1;" parent="9hNJUhvh3VTDX919A3ip-198" vertex="1">
          <mxGeometry y="332" width="200" height="30" as="geometry" />
        </mxCell>
        <mxCell id="9hNJUhvh3VTDX919A3ip-293" value="{required}" style="html=1;verticalAlign=bottom;labelBackgroundColor=none;endArrow=block;endFill=1;endSize=6;align=left;rounded=0;exitX=1;exitY=0.5;exitDx=0;exitDy=0;entryX=0;entryY=0.5;entryDx=0;entryDy=0;" parent="9hNJUhvh3VTDX919A3ip-175" source="9hNJUhvh3VTDX919A3ip-183" target="9hNJUhvh3VTDX919A3ip-193" edge="1">
          <mxGeometry x="-1" relative="1" as="geometry">
            <mxPoint x="240" y="140" as="sourcePoint" />
            <mxPoint x="400" y="140" as="targetPoint" />
          </mxGeometry>
        </mxCell>
        <mxCell id="9hNJUhvh3VTDX919A3ip-294" value="{required}" style="html=1;verticalAlign=bottom;labelBackgroundColor=none;endArrow=block;endFill=1;endSize=6;align=left;rounded=0;entryX=-0.007;entryY=-0.145;entryDx=0;entryDy=0;entryPerimeter=0;" parent="9hNJUhvh3VTDX919A3ip-175" target="9hNJUhvh3VTDX919A3ip-204" edge="1">
          <mxGeometry x="-1" relative="1" as="geometry">
            <mxPoint x="240" y="190" as="sourcePoint" />
            <mxPoint x="451" y="340" as="targetPoint" />
          </mxGeometry>
        </mxCell>
        <mxCell id="9hNJUhvh3VTDX919A3ip-295" value="Warehouse microservice" style="swimlane;startSize=23;" parent="1" vertex="1">
          <mxGeometry x="20" y="600" width="1180" height="450" as="geometry" />
        </mxCell>
        <mxCell id="9hNJUhvh3VTDX919A3ip-296" value="Warehouse_manager" style="swimlane;fontStyle=1;align=center;verticalAlign=top;childLayout=stackLayout;horizontal=1;startSize=26;horizontalStack=0;resizeParent=1;resizeParentMax=0;resizeLast=0;collapsible=1;marginBottom=0;whiteSpace=wrap;html=1;" parent="9hNJUhvh3VTDX919A3ip-295" vertex="1">
          <mxGeometry x="39.25" y="40" width="200" height="346" as="geometry" />
        </mxCell>
        <mxCell id="9hNJUhvh3VTDX919A3ip-297" value="+&amp;nbsp;warehouse_manager_ID: long" style="text;strokeColor=none;fillColor=none;align=left;verticalAlign=top;spacingLeft=4;spacingRight=4;overflow=hidden;rotatable=0;points=[[0,0.5],[1,0.5]];portConstraint=eastwest;whiteSpace=wrap;html=1;" parent="9hNJUhvh3VTDX919A3ip-296" vertex="1">
          <mxGeometry y="26" width="200" height="26" as="geometry" />
        </mxCell>
        <mxCell id="9hNJUhvh3VTDX919A3ip-298" value="+ identification: String (50)" style="text;strokeColor=none;fillColor=none;align=left;verticalAlign=top;spacingLeft=4;spacingRight=4;overflow=hidden;rotatable=0;points=[[0,0.5],[1,0.5]];portConstraint=eastwest;whiteSpace=wrap;html=1;" parent="9hNJUhvh3VTDX919A3ip-296" vertex="1">
          <mxGeometry y="52" width="200" height="26" as="geometry" />
        </mxCell>
        <mxCell id="9hNJUhvh3VTDX919A3ip-299" value="+ name: String (50)" style="text;strokeColor=none;fillColor=none;align=left;verticalAlign=top;spacingLeft=4;spacingRight=4;overflow=hidden;rotatable=0;points=[[0,0.5],[1,0.5]];portConstraint=eastwest;whiteSpace=wrap;html=1;" parent="9hNJUhvh3VTDX919A3ip-296" vertex="1">
          <mxGeometry y="78" width="200" height="26" as="geometry" />
        </mxCell>
        <mxCell id="9hNJUhvh3VTDX919A3ip-300" value="+&amp;nbsp;lastname: String (50)" style="text;strokeColor=none;fillColor=none;align=left;verticalAlign=top;spacingLeft=4;spacingRight=4;overflow=hidden;rotatable=0;points=[[0,0.5],[1,0.5]];portConstraint=eastwest;whiteSpace=wrap;html=1;" parent="9hNJUhvh3VTDX919A3ip-296" vertex="1">
          <mxGeometry y="104" width="200" height="26" as="geometry" />
        </mxCell>
        <mxCell id="9hNJUhvh3VTDX919A3ip-301" value="+&amp;nbsp;phone: String (10)" style="text;strokeColor=none;fillColor=none;align=left;verticalAlign=top;spacingLeft=4;spacingRight=4;overflow=hidden;rotatable=0;points=[[0,0.5],[1,0.5]];portConstraint=eastwest;whiteSpace=wrap;html=1;" parent="9hNJUhvh3VTDX919A3ip-296" vertex="1">
          <mxGeometry y="130" width="200" height="26" as="geometry" />
        </mxCell>
        <mxCell id="9hNJUhvh3VTDX919A3ip-457" value="+ email: String (50)" style="text;strokeColor=none;fillColor=none;align=left;verticalAlign=top;spacingLeft=4;spacingRight=4;overflow=hidden;rotatable=0;points=[[0,0.5],[1,0.5]];portConstraint=eastwest;whiteSpace=wrap;html=1;" parent="9hNJUhvh3VTDX919A3ip-296" vertex="1">
          <mxGeometry y="156" width="200" height="26" as="geometry" />
        </mxCell>
        <mxCell id="9hNJUhvh3VTDX919A3ip-458" value="+ active: boolean" style="text;strokeColor=none;fillColor=none;align=left;verticalAlign=top;spacingLeft=4;spacingRight=4;overflow=hidden;rotatable=0;points=[[0,0.5],[1,0.5]];portConstraint=eastwest;whiteSpace=wrap;html=1;" parent="9hNJUhvh3VTDX919A3ip-296" vertex="1">
          <mxGeometry y="182" width="200" height="26" as="geometry" />
        </mxCell>
        <mxCell id="9hNJUhvh3VTDX919A3ip-302" value="" style="line;strokeWidth=1;fillColor=none;align=left;verticalAlign=middle;spacingTop=-1;spacingLeft=3;spacingRight=3;rotatable=0;labelPosition=right;points=[];portConstraint=eastwest;strokeColor=inherit;" parent="9hNJUhvh3VTDX919A3ip-296" vertex="1">
          <mxGeometry y="208" width="200" height="8" as="geometry" />
        </mxCell>
        <mxCell id="9hNJUhvh3VTDX919A3ip-303" value="+ Create(POST): Create vehicle" style="text;strokeColor=none;fillColor=none;align=left;verticalAlign=top;spacingLeft=4;spacingRight=4;overflow=hidden;rotatable=0;points=[[0,0.5],[1,0.5]];portConstraint=eastwest;whiteSpace=wrap;html=1;" parent="9hNJUhvh3VTDX919A3ip-296" vertex="1">
          <mxGeometry y="216" width="200" height="26" as="geometry" />
        </mxCell>
        <mxCell id="9hNJUhvh3VTDX919A3ip-304" value="+ List(GET): FindyById" style="text;strokeColor=none;fillColor=none;align=left;verticalAlign=top;spacingLeft=4;spacingRight=4;overflow=hidden;rotatable=0;points=[[0,0.5],[1,0.5]];portConstraint=eastwest;whiteSpace=wrap;html=1;" parent="9hNJUhvh3VTDX919A3ip-296" vertex="1">
          <mxGeometry y="242" width="200" height="26" as="geometry" />
        </mxCell>
        <mxCell id="9hNJUhvh3VTDX919A3ip-305" value="+ Modify(PUT):Modify object" style="text;strokeColor=none;fillColor=none;align=left;verticalAlign=top;spacingLeft=4;spacingRight=4;overflow=hidden;rotatable=0;points=[[0,0.5],[1,0.5]];portConstraint=eastwest;whiteSpace=wrap;html=1;" parent="9hNJUhvh3VTDX919A3ip-296" vertex="1">
          <mxGeometry y="268" width="200" height="26" as="geometry" />
        </mxCell>
        <mxCell id="9hNJUhvh3VTDX919A3ip-306" value="+ Modify(PATCH): Modify attribute" style="text;strokeColor=none;fillColor=none;align=left;verticalAlign=top;spacingLeft=4;spacingRight=4;overflow=hidden;rotatable=0;points=[[0,0.5],[1,0.5]];portConstraint=eastwest;whiteSpace=wrap;html=1;" parent="9hNJUhvh3VTDX919A3ip-296" vertex="1">
          <mxGeometry y="294" width="200" height="26" as="geometry" />
        </mxCell>
        <mxCell id="9hNJUhvh3VTDX919A3ip-307" value="+ Delete(DELETE): Delete objects" style="text;strokeColor=none;fillColor=none;align=left;verticalAlign=top;spacingLeft=4;spacingRight=4;overflow=hidden;rotatable=0;points=[[0,0.5],[1,0.5]];portConstraint=eastwest;whiteSpace=wrap;html=1;" parent="9hNJUhvh3VTDX919A3ip-296" vertex="1">
          <mxGeometry y="320" width="200" height="26" as="geometry" />
        </mxCell>
        <mxCell id="9hNJUhvh3VTDX919A3ip-308" value="Warehouse" style="swimlane;fontStyle=1;align=center;verticalAlign=top;childLayout=stackLayout;horizontal=1;startSize=26;horizontalStack=0;resizeParent=1;resizeParentMax=0;resizeLast=0;collapsible=1;marginBottom=0;whiteSpace=wrap;html=1;" parent="9hNJUhvh3VTDX919A3ip-295" vertex="1">
          <mxGeometry x="342.25" y="40" width="200" height="392" as="geometry" />
        </mxCell>
        <mxCell id="9hNJUhvh3VTDX919A3ip-309" value="+ warehouse_ID: long" style="text;strokeColor=none;fillColor=none;align=left;verticalAlign=top;spacingLeft=4;spacingRight=4;overflow=hidden;rotatable=0;points=[[0,0.5],[1,0.5]];portConstraint=eastwest;whiteSpace=wrap;html=1;" parent="9hNJUhvh3VTDX919A3ip-308" vertex="1">
          <mxGeometry y="26" width="200" height="26" as="geometry" />
        </mxCell>
        <mxCell id="9hNJUhvh3VTDX919A3ip-459" value="+ name: String (50)" style="text;strokeColor=none;fillColor=none;align=left;verticalAlign=top;spacingLeft=4;spacingRight=4;overflow=hidden;rotatable=0;points=[[0,0.5],[1,0.5]];portConstraint=eastwest;whiteSpace=wrap;html=1;" parent="9hNJUhvh3VTDX919A3ip-308" vertex="1">
          <mxGeometry y="52" width="200" height="26" as="geometry" />
        </mxCell>
        <mxCell id="9hNJUhvh3VTDX919A3ip-460" value="+&amp;nbsp;address: String (50)" style="text;strokeColor=none;fillColor=none;align=left;verticalAlign=middle;spacingLeft=4;spacingRight=4;overflow=hidden;points=[[0,0.5],[1,0.5]];portConstraint=eastwest;rotatable=0;whiteSpace=wrap;html=1;" parent="9hNJUhvh3VTDX919A3ip-308" vertex="1">
          <mxGeometry y="78" width="200" height="30" as="geometry" />
        </mxCell>
        <mxCell id="9hNJUhvh3VTDX919A3ip-461" value="+ country: String (50)" style="text;strokeColor=none;fillColor=none;align=left;verticalAlign=middle;spacingLeft=4;spacingRight=4;overflow=hidden;points=[[0,0.5],[1,0.5]];portConstraint=eastwest;rotatable=0;whiteSpace=wrap;html=1;" parent="9hNJUhvh3VTDX919A3ip-308" vertex="1">
          <mxGeometry y="108" width="200" height="30" as="geometry" />
        </mxCell>
        <mxCell id="9hNJUhvh3VTDX919A3ip-462" value="+ department: String (50)" style="text;strokeColor=none;fillColor=none;align=left;verticalAlign=middle;spacingLeft=4;spacingRight=4;overflow=hidden;points=[[0,0.5],[1,0.5]];portConstraint=eastwest;rotatable=0;whiteSpace=wrap;html=1;" parent="9hNJUhvh3VTDX919A3ip-308" vertex="1">
          <mxGeometry y="138" width="200" height="30" as="geometry" />
        </mxCell>
        <mxCell id="9hNJUhvh3VTDX919A3ip-463" value="+ city: String (50)" style="text;strokeColor=none;fillColor=none;align=left;verticalAlign=middle;spacingLeft=4;spacingRight=4;overflow=hidden;points=[[0,0.5],[1,0.5]];portConstraint=eastwest;rotatable=0;whiteSpace=wrap;html=1;" parent="9hNJUhvh3VTDX919A3ip-308" vertex="1">
          <mxGeometry y="168" width="200" height="30" as="geometry" />
        </mxCell>
        <mxCell id="9hNJUhvh3VTDX919A3ip-464" value="+&amp;nbsp;neighborthhood: String (50)" style="text;strokeColor=none;fillColor=none;align=left;verticalAlign=middle;spacingLeft=4;spacingRight=4;overflow=hidden;points=[[0,0.5],[1,0.5]];portConstraint=eastwest;rotatable=0;whiteSpace=wrap;html=1;" parent="9hNJUhvh3VTDX919A3ip-308" vertex="1">
          <mxGeometry y="198" width="200" height="30" as="geometry" />
        </mxCell>
        <mxCell id="9hNJUhvh3VTDX919A3ip-311" value="+ postal_code:&amp;nbsp; String (10)" style="text;strokeColor=none;fillColor=none;align=left;verticalAlign=top;spacingLeft=4;spacingRight=4;overflow=hidden;rotatable=0;points=[[0,0.5],[1,0.5]];portConstraint=eastwest;whiteSpace=wrap;html=1;" parent="9hNJUhvh3VTDX919A3ip-308" vertex="1">
          <mxGeometry y="228" width="200" height="26" as="geometry" />
        </mxCell>
        <mxCell id="9hNJUhvh3VTDX919A3ip-312" value="" style="line;strokeWidth=1;fillColor=none;align=left;verticalAlign=middle;spacingTop=-1;spacingLeft=3;spacingRight=3;rotatable=0;labelPosition=right;points=[];portConstraint=eastwest;strokeColor=inherit;" parent="9hNJUhvh3VTDX919A3ip-308" vertex="1">
          <mxGeometry y="254" width="200" height="8" as="geometry" />
        </mxCell>
        <mxCell id="9hNJUhvh3VTDX919A3ip-313" value="+ Create(POST): Create vehicle" style="text;strokeColor=none;fillColor=none;align=left;verticalAlign=top;spacingLeft=4;spacingRight=4;overflow=hidden;rotatable=0;points=[[0,0.5],[1,0.5]];portConstraint=eastwest;whiteSpace=wrap;html=1;" parent="9hNJUhvh3VTDX919A3ip-308" vertex="1">
          <mxGeometry y="262" width="200" height="26" as="geometry" />
        </mxCell>
        <mxCell id="9hNJUhvh3VTDX919A3ip-314" value="+ List(GET): FindyById" style="text;strokeColor=none;fillColor=none;align=left;verticalAlign=top;spacingLeft=4;spacingRight=4;overflow=hidden;rotatable=0;points=[[0,0.5],[1,0.5]];portConstraint=eastwest;whiteSpace=wrap;html=1;" parent="9hNJUhvh3VTDX919A3ip-308" vertex="1">
          <mxGeometry y="288" width="200" height="26" as="geometry" />
        </mxCell>
        <mxCell id="9hNJUhvh3VTDX919A3ip-315" value="+ Modify(PUT):Modify object" style="text;strokeColor=none;fillColor=none;align=left;verticalAlign=top;spacingLeft=4;spacingRight=4;overflow=hidden;rotatable=0;points=[[0,0.5],[1,0.5]];portConstraint=eastwest;whiteSpace=wrap;html=1;" parent="9hNJUhvh3VTDX919A3ip-308" vertex="1">
          <mxGeometry y="314" width="200" height="26" as="geometry" />
        </mxCell>
        <mxCell id="9hNJUhvh3VTDX919A3ip-316" value="+ Modify(PATCH): Modify attribute" style="text;strokeColor=none;fillColor=none;align=left;verticalAlign=top;spacingLeft=4;spacingRight=4;overflow=hidden;rotatable=0;points=[[0,0.5],[1,0.5]];portConstraint=eastwest;whiteSpace=wrap;html=1;" parent="9hNJUhvh3VTDX919A3ip-308" vertex="1">
          <mxGeometry y="340" width="200" height="26" as="geometry" />
        </mxCell>
        <mxCell id="9hNJUhvh3VTDX919A3ip-317" value="+ Delete(DELETE): Delete objects" style="text;strokeColor=none;fillColor=none;align=left;verticalAlign=top;spacingLeft=4;spacingRight=4;overflow=hidden;rotatable=0;points=[[0,0.5],[1,0.5]];portConstraint=eastwest;whiteSpace=wrap;html=1;" parent="9hNJUhvh3VTDX919A3ip-308" vertex="1">
          <mxGeometry y="366" width="200" height="26" as="geometry" />
        </mxCell>
        <mxCell id="9hNJUhvh3VTDX919A3ip-318" value="Building" style="swimlane;fontStyle=1;align=center;verticalAlign=top;childLayout=stackLayout;horizontal=1;startSize=26;horizontalStack=0;resizeParent=1;resizeParentMax=0;resizeLast=0;collapsible=1;marginBottom=0;whiteSpace=wrap;html=1;" parent="9hNJUhvh3VTDX919A3ip-295" vertex="1">
          <mxGeometry x="642.25" y="40" width="200" height="216" as="geometry" />
        </mxCell>
        <mxCell id="9hNJUhvh3VTDX919A3ip-319" value="+ building_ID: long" style="text;strokeColor=none;fillColor=none;align=left;verticalAlign=top;spacingLeft=4;spacingRight=4;overflow=hidden;rotatable=0;points=[[0,0.5],[1,0.5]];portConstraint=eastwest;whiteSpace=wrap;html=1;" parent="9hNJUhvh3VTDX919A3ip-318" vertex="1">
          <mxGeometry y="26" width="200" height="26" as="geometry" />
        </mxCell>
        <mxCell id="9hNJUhvh3VTDX919A3ip-320" value="+ name: String (50)" style="text;strokeColor=none;fillColor=none;align=left;verticalAlign=top;spacingLeft=4;spacingRight=4;overflow=hidden;rotatable=0;points=[[0,0.5],[1,0.5]];portConstraint=eastwest;whiteSpace=wrap;html=1;" parent="9hNJUhvh3VTDX919A3ip-318" vertex="1">
          <mxGeometry y="52" width="200" height="26" as="geometry" />
        </mxCell>
        <mxCell id="9hNJUhvh3VTDX919A3ip-330" value="" style="line;strokeWidth=1;fillColor=none;align=left;verticalAlign=middle;spacingTop=-1;spacingLeft=3;spacingRight=3;rotatable=0;labelPosition=right;points=[];portConstraint=eastwest;strokeColor=inherit;" parent="9hNJUhvh3VTDX919A3ip-318" vertex="1">
          <mxGeometry y="78" width="200" height="8" as="geometry" />
        </mxCell>
        <mxCell id="9hNJUhvh3VTDX919A3ip-331" value="+ Create(POST): Create vehicle" style="text;strokeColor=none;fillColor=none;align=left;verticalAlign=top;spacingLeft=4;spacingRight=4;overflow=hidden;rotatable=0;points=[[0,0.5],[1,0.5]];portConstraint=eastwest;whiteSpace=wrap;html=1;" parent="9hNJUhvh3VTDX919A3ip-318" vertex="1">
          <mxGeometry y="86" width="200" height="26" as="geometry" />
        </mxCell>
        <mxCell id="9hNJUhvh3VTDX919A3ip-332" value="+ List(GET): FindyById" style="text;strokeColor=none;fillColor=none;align=left;verticalAlign=top;spacingLeft=4;spacingRight=4;overflow=hidden;rotatable=0;points=[[0,0.5],[1,0.5]];portConstraint=eastwest;whiteSpace=wrap;html=1;" parent="9hNJUhvh3VTDX919A3ip-318" vertex="1">
          <mxGeometry y="112" width="200" height="26" as="geometry" />
        </mxCell>
        <mxCell id="9hNJUhvh3VTDX919A3ip-333" value="+ Modify(PUT):Modify object" style="text;strokeColor=none;fillColor=none;align=left;verticalAlign=top;spacingLeft=4;spacingRight=4;overflow=hidden;rotatable=0;points=[[0,0.5],[1,0.5]];portConstraint=eastwest;whiteSpace=wrap;html=1;" parent="9hNJUhvh3VTDX919A3ip-318" vertex="1">
          <mxGeometry y="138" width="200" height="26" as="geometry" />
        </mxCell>
        <mxCell id="9hNJUhvh3VTDX919A3ip-334" value="+ Modify(PATCH): Modify attribute" style="text;strokeColor=none;fillColor=none;align=left;verticalAlign=top;spacingLeft=4;spacingRight=4;overflow=hidden;rotatable=0;points=[[0,0.5],[1,0.5]];portConstraint=eastwest;whiteSpace=wrap;html=1;" parent="9hNJUhvh3VTDX919A3ip-318" vertex="1">
          <mxGeometry y="164" width="200" height="26" as="geometry" />
        </mxCell>
        <mxCell id="9hNJUhvh3VTDX919A3ip-335" value="+ Delete(DELETE): Delete objects" style="text;strokeColor=none;fillColor=none;align=left;verticalAlign=top;spacingLeft=4;spacingRight=4;overflow=hidden;rotatable=0;points=[[0,0.5],[1,0.5]];portConstraint=eastwest;whiteSpace=wrap;html=1;" parent="9hNJUhvh3VTDX919A3ip-318" vertex="1">
          <mxGeometry y="190" width="200" height="26" as="geometry" />
        </mxCell>
        <mxCell id="9hNJUhvh3VTDX919A3ip-336" value="Location" style="swimlane;fontStyle=1;align=center;verticalAlign=top;childLayout=stackLayout;horizontal=1;startSize=26;horizontalStack=0;resizeParent=1;resizeParentMax=0;resizeLast=0;collapsible=1;marginBottom=0;whiteSpace=wrap;html=1;" parent="9hNJUhvh3VTDX919A3ip-295" vertex="1">
          <mxGeometry x="940.75" y="40" width="200" height="388" as="geometry" />
        </mxCell>
        <mxCell id="9hNJUhvh3VTDX919A3ip-337" value="+&amp;nbsp;location_ID: long" style="text;strokeColor=none;fillColor=none;align=left;verticalAlign=top;spacingLeft=4;spacingRight=4;overflow=hidden;rotatable=0;points=[[0,0.5],[1,0.5]];portConstraint=eastwest;whiteSpace=wrap;html=1;" parent="9hNJUhvh3VTDX919A3ip-336" vertex="1">
          <mxGeometry y="26" width="200" height="26" as="geometry" />
        </mxCell>
        <mxCell id="9hNJUhvh3VTDX919A3ip-338" value="+ type: String (50)" style="text;strokeColor=none;fillColor=none;align=left;verticalAlign=top;spacingLeft=4;spacingRight=4;overflow=hidden;rotatable=0;points=[[0,0.5],[1,0.5]];portConstraint=eastwest;whiteSpace=wrap;html=1;" parent="9hNJUhvh3VTDX919A3ip-336" vertex="1">
          <mxGeometry y="52" width="200" height="26" as="geometry" />
        </mxCell>
        <mxCell id="9hNJUhvh3VTDX919A3ip-339" value="+ long: float" style="text;strokeColor=none;fillColor=none;align=left;verticalAlign=top;spacingLeft=4;spacingRight=4;overflow=hidden;rotatable=0;points=[[0,0.5],[1,0.5]];portConstraint=eastwest;whiteSpace=wrap;html=1;" parent="9hNJUhvh3VTDX919A3ip-336" vertex="1">
          <mxGeometry y="78" width="200" height="26" as="geometry" />
        </mxCell>
        <mxCell id="9hNJUhvh3VTDX919A3ip-465" value="+ high: float" style="text;strokeColor=none;fillColor=none;align=left;verticalAlign=top;spacingLeft=4;spacingRight=4;overflow=hidden;rotatable=0;points=[[0,0.5],[1,0.5]];portConstraint=eastwest;whiteSpace=wrap;html=1;" parent="9hNJUhvh3VTDX919A3ip-336" vertex="1">
          <mxGeometry y="104" width="200" height="26" as="geometry" />
        </mxCell>
        <mxCell id="9hNJUhvh3VTDX919A3ip-466" value="+ wide: float" style="text;strokeColor=none;fillColor=none;align=left;verticalAlign=middle;spacingLeft=4;spacingRight=4;overflow=hidden;points=[[0,0.5],[1,0.5]];portConstraint=eastwest;rotatable=0;whiteSpace=wrap;html=1;" parent="9hNJUhvh3VTDX919A3ip-336" vertex="1">
          <mxGeometry y="130" width="200" height="30" as="geometry" />
        </mxCell>
        <mxCell id="9hNJUhvh3VTDX919A3ip-467" value="+ weight: float" style="text;strokeColor=none;fillColor=none;align=left;verticalAlign=middle;spacingLeft=4;spacingRight=4;overflow=hidden;points=[[0,0.5],[1,0.5]];portConstraint=eastwest;rotatable=0;whiteSpace=wrap;html=1;" parent="9hNJUhvh3VTDX919A3ip-336" vertex="1">
          <mxGeometry y="160" width="200" height="30" as="geometry" />
        </mxCell>
        <mxCell id="9hNJUhvh3VTDX919A3ip-468" value="+ volume: float" style="text;strokeColor=none;fillColor=none;align=left;verticalAlign=middle;spacingLeft=4;spacingRight=4;overflow=hidden;points=[[0,0.5],[1,0.5]];portConstraint=eastwest;rotatable=0;whiteSpace=wrap;html=1;" parent="9hNJUhvh3VTDX919A3ip-336" vertex="1">
          <mxGeometry y="190" width="200" height="30" as="geometry" />
        </mxCell>
        <mxCell id="9hNJUhvh3VTDX919A3ip-348" value="" style="line;strokeWidth=1;fillColor=none;align=left;verticalAlign=middle;spacingTop=-1;spacingLeft=3;spacingRight=3;rotatable=0;labelPosition=right;points=[];portConstraint=eastwest;strokeColor=inherit;" parent="9hNJUhvh3VTDX919A3ip-336" vertex="1">
          <mxGeometry y="220" width="200" height="8" as="geometry" />
        </mxCell>
        <mxCell id="9hNJUhvh3VTDX919A3ip-349" value="+ Create(POST): Create vehicle" style="text;strokeColor=none;fillColor=none;align=left;verticalAlign=top;spacingLeft=4;spacingRight=4;overflow=hidden;rotatable=0;points=[[0,0.5],[1,0.5]];portConstraint=eastwest;whiteSpace=wrap;html=1;" parent="9hNJUhvh3VTDX919A3ip-336" vertex="1">
          <mxGeometry y="228" width="200" height="26" as="geometry" />
        </mxCell>
        <mxCell id="9hNJUhvh3VTDX919A3ip-350" value="+ List(GET): FindyById" style="text;strokeColor=none;fillColor=none;align=left;verticalAlign=top;spacingLeft=4;spacingRight=4;overflow=hidden;rotatable=0;points=[[0,0.5],[1,0.5]];portConstraint=eastwest;whiteSpace=wrap;html=1;" parent="9hNJUhvh3VTDX919A3ip-336" vertex="1">
          <mxGeometry y="254" width="200" height="26" as="geometry" />
        </mxCell>
        <mxCell id="9hNJUhvh3VTDX919A3ip-351" value="+ Modify(PUT):Modify object" style="text;strokeColor=none;fillColor=none;align=left;verticalAlign=top;spacingLeft=4;spacingRight=4;overflow=hidden;rotatable=0;points=[[0,0.5],[1,0.5]];portConstraint=eastwest;whiteSpace=wrap;html=1;" parent="9hNJUhvh3VTDX919A3ip-336" vertex="1">
          <mxGeometry y="280" width="200" height="26" as="geometry" />
        </mxCell>
        <mxCell id="9hNJUhvh3VTDX919A3ip-352" value="+ Modify(PATCH): Modify attribute" style="text;strokeColor=none;fillColor=none;align=left;verticalAlign=top;spacingLeft=4;spacingRight=4;overflow=hidden;rotatable=0;points=[[0,0.5],[1,0.5]];portConstraint=eastwest;whiteSpace=wrap;html=1;" parent="9hNJUhvh3VTDX919A3ip-336" vertex="1">
          <mxGeometry y="306" width="200" height="26" as="geometry" />
        </mxCell>
        <mxCell id="9hNJUhvh3VTDX919A3ip-353" value="+ Delete(DELETE): Delete objects" style="text;strokeColor=none;fillColor=none;align=left;verticalAlign=top;spacingLeft=4;spacingRight=4;overflow=hidden;rotatable=0;points=[[0,0.5],[1,0.5]];portConstraint=eastwest;whiteSpace=wrap;html=1;" parent="9hNJUhvh3VTDX919A3ip-336" vertex="1">
          <mxGeometry y="332" width="200" height="26" as="geometry" />
        </mxCell>
        <mxCell id="9hNJUhvh3VTDX919A3ip-469" value="+ volumre = long*high*wide" style="text;strokeColor=none;fillColor=none;align=left;verticalAlign=middle;spacingLeft=4;spacingRight=4;overflow=hidden;points=[[0,0.5],[1,0.5]];portConstraint=eastwest;rotatable=0;whiteSpace=wrap;html=1;" parent="9hNJUhvh3VTDX919A3ip-336" vertex="1">
          <mxGeometry y="358" width="200" height="30" as="geometry" />
        </mxCell>
        <mxCell id="9hNJUhvh3VTDX919A3ip-354" value="Relation" style="endArrow=open;html=1;endSize=12;startArrow=diamondThin;startSize=14;startFill=0;edgeStyle=orthogonalEdgeStyle;rounded=0;exitX=1;exitY=0.5;exitDx=0;exitDy=0;entryX=0;entryY=0.5;entryDx=0;entryDy=0;" parent="9hNJUhvh3VTDX919A3ip-295" source="9hNJUhvh3VTDX919A3ip-301" target="9hNJUhvh3VTDX919A3ip-313" edge="1">
          <mxGeometry relative="1" as="geometry">
            <mxPoint x="352.25" y="325" as="sourcePoint" />
            <mxPoint x="512.25" y="325" as="targetPoint" />
          </mxGeometry>
        </mxCell>
        <mxCell id="9hNJUhvh3VTDX919A3ip-355" value="0..n" style="edgeLabel;resizable=0;html=1;align=left;verticalAlign=top;" parent="9hNJUhvh3VTDX919A3ip-354" connectable="0" vertex="1">
          <mxGeometry x="-1" relative="1" as="geometry" />
        </mxCell>
        <mxCell id="9hNJUhvh3VTDX919A3ip-356" value="1" style="edgeLabel;resizable=0;html=1;align=right;verticalAlign=top;" parent="9hNJUhvh3VTDX919A3ip-354" connectable="0" vertex="1">
          <mxGeometry x="1" relative="1" as="geometry" />
        </mxCell>
        <mxCell id="9hNJUhvh3VTDX919A3ip-357" value="Relation" style="endArrow=open;html=1;endSize=12;startArrow=diamondThin;startSize=14;startFill=0;edgeStyle=orthogonalEdgeStyle;rounded=0;exitX=0.005;exitY=-0.109;exitDx=0;exitDy=0;exitPerimeter=0;entryX=1;entryY=0.5;entryDx=0;entryDy=0;" parent="9hNJUhvh3VTDX919A3ip-295" source="9hNJUhvh3VTDX919A3ip-331" target="9hNJUhvh3VTDX919A3ip-463" edge="1">
          <mxGeometry relative="1" as="geometry">
            <mxPoint x="565.25" y="193" as="sourcePoint" />
            <mxPoint x="592" y="130" as="targetPoint" />
          </mxGeometry>
        </mxCell>
        <mxCell id="9hNJUhvh3VTDX919A3ip-358" value="0..n" style="edgeLabel;resizable=0;html=1;align=left;verticalAlign=top;" parent="9hNJUhvh3VTDX919A3ip-357" connectable="0" vertex="1">
          <mxGeometry x="-1" relative="1" as="geometry" />
        </mxCell>
        <mxCell id="9hNJUhvh3VTDX919A3ip-359" value="1" style="edgeLabel;resizable=0;html=1;align=right;verticalAlign=top;" parent="9hNJUhvh3VTDX919A3ip-357" connectable="0" vertex="1">
          <mxGeometry x="1" relative="1" as="geometry" />
        </mxCell>
        <mxCell id="9hNJUhvh3VTDX919A3ip-360" value="Relation" style="endArrow=open;html=1;endSize=12;startArrow=diamondThin;startSize=14;startFill=0;edgeStyle=orthogonalEdgeStyle;rounded=0;entryX=1.017;entryY=-0.066;entryDx=0;entryDy=0;entryPerimeter=0;" parent="9hNJUhvh3VTDX919A3ip-295" target="9hNJUhvh3VTDX919A3ip-332" edge="1">
          <mxGeometry relative="1" as="geometry">
            <mxPoint x="940" y="150" as="sourcePoint" />
            <mxPoint x="890" y="250" as="targetPoint" />
          </mxGeometry>
        </mxCell>
        <mxCell id="9hNJUhvh3VTDX919A3ip-361" value="0..n" style="edgeLabel;resizable=0;html=1;align=left;verticalAlign=top;" parent="9hNJUhvh3VTDX919A3ip-360" connectable="0" vertex="1">
          <mxGeometry x="-1" relative="1" as="geometry" />
        </mxCell>
        <mxCell id="9hNJUhvh3VTDX919A3ip-362" value="1" style="edgeLabel;resizable=0;html=1;align=right;verticalAlign=top;" parent="9hNJUhvh3VTDX919A3ip-360" connectable="0" vertex="1">
          <mxGeometry x="1" relative="1" as="geometry" />
        </mxCell>
        <mxCell id="9hNJUhvh3VTDX919A3ip-470" value="Relation" style="endArrow=open;html=1;endSize=12;startArrow=diamondThin;startSize=14;startFill=0;edgeStyle=orthogonalEdgeStyle;rounded=0;exitX=0;exitY=0.5;exitDx=0;exitDy=0;entryX=0.5;entryY=0;entryDx=0;entryDy=0;" parent="1" source="wMpl_X3hOaTr-WB6agX8-32" target="9hNJUhvh3VTDX919A3ip-308" edge="1">
          <mxGeometry relative="1" as="geometry">
            <mxPoint x="662.25" y="444.99999999999955" as="sourcePoint" />
            <mxPoint x="500" y="534" as="targetPoint" />
          </mxGeometry>
        </mxCell>
        <mxCell id="9hNJUhvh3VTDX919A3ip-471" value="0..n" style="edgeLabel;resizable=0;html=1;align=left;verticalAlign=top;" parent="9hNJUhvh3VTDX919A3ip-470" connectable="0" vertex="1">
          <mxGeometry x="-1" relative="1" as="geometry" />
        </mxCell>
        <mxCell id="9hNJUhvh3VTDX919A3ip-472" value="1" style="edgeLabel;resizable=0;html=1;align=right;verticalAlign=top;" parent="9hNJUhvh3VTDX919A3ip-470" connectable="0" vertex="1">
          <mxGeometry x="1" relative="1" as="geometry" />
        </mxCell>
        <mxCell id="9hNJUhvh3VTDX919A3ip-477" value="Relation" style="endArrow=open;html=1;endSize=12;startArrow=diamondThin;startSize=14;startFill=0;edgeStyle=orthogonalEdgeStyle;rounded=0;exitX=1;exitY=0.5;exitDx=0;exitDy=0;entryX=0.406;entryY=1.024;entryDx=0;entryDy=0;entryPerimeter=0;" parent="1" source="9hNJUhvh3VTDX919A3ip-468" target="9hNJUhvh3VTDX919A3ip-187" edge="1">
          <mxGeometry relative="1" as="geometry">
            <mxPoint x="1409.75" y="750" as="sourcePoint" />
            <mxPoint x="1350" y="600" as="targetPoint" />
          </mxGeometry>
        </mxCell>
        <mxCell id="9hNJUhvh3VTDX919A3ip-478" value="0..n" style="edgeLabel;resizable=0;html=1;align=left;verticalAlign=top;" parent="9hNJUhvh3VTDX919A3ip-477" connectable="0" vertex="1">
          <mxGeometry x="-1" relative="1" as="geometry" />
        </mxCell>
        <mxCell id="9hNJUhvh3VTDX919A3ip-479" value="1" style="edgeLabel;resizable=0;html=1;align=right;verticalAlign=top;" parent="9hNJUhvh3VTDX919A3ip-477" connectable="0" vertex="1">
          <mxGeometry x="1" relative="1" as="geometry" />
        </mxCell>
        <mxCell id="9hNJUhvh3VTDX919A3ip-483" value="Relation" style="endArrow=open;html=1;endSize=12;startArrow=diamondThin;startSize=14;startFill=0;edgeStyle=orthogonalEdgeStyle;rounded=0;exitX=0;exitY=0.5;exitDx=0;exitDy=0;entryX=1;entryY=0.5;entryDx=0;entryDy=0;" parent="1" source="9hNJUhvh3VTDX919A3ip-183" target="wMpl_X3hOaTr-WB6agX8-1" edge="1">
          <mxGeometry relative="1" as="geometry">
            <mxPoint x="1730" y="215" as="sourcePoint" />
            <mxPoint x="881" y="-200" as="targetPoint" />
            <Array as="points">
              <mxPoint x="1100" y="411" />
              <mxPoint x="1100" y="310" />
            </Array>
          </mxGeometry>
        </mxCell>
        <mxCell id="9hNJUhvh3VTDX919A3ip-484" value="0..n" style="edgeLabel;resizable=0;html=1;align=left;verticalAlign=top;" parent="9hNJUhvh3VTDX919A3ip-483" connectable="0" vertex="1">
          <mxGeometry x="-1" relative="1" as="geometry" />
        </mxCell>
        <mxCell id="9hNJUhvh3VTDX919A3ip-485" value="1" style="edgeLabel;resizable=0;html=1;align=right;verticalAlign=top;" parent="9hNJUhvh3VTDX919A3ip-483" connectable="0" vertex="1">
          <mxGeometry x="1" relative="1" as="geometry" />
        </mxCell>
        <mxCell id="wMpl_X3hOaTr-WB6agX8-1" value="Client microservice" style="swimlane;startSize=23;" vertex="1" parent="1">
          <mxGeometry x="680" y="40" width="240.75" height="540" as="geometry" />
        </mxCell>
        <mxCell id="wMpl_X3hOaTr-WB6agX8-24" value="Client" style="swimlane;fontStyle=1;align=center;verticalAlign=top;childLayout=stackLayout;horizontal=1;startSize=26;horizontalStack=0;resizeParent=1;resizeParentMax=0;resizeLast=0;collapsible=1;marginBottom=0;whiteSpace=wrap;html=1;" vertex="1" parent="wMpl_X3hOaTr-WB6agX8-1">
          <mxGeometry x="20.75" y="40" width="200" height="482" as="geometry" />
        </mxCell>
        <mxCell id="wMpl_X3hOaTr-WB6agX8-25" value="+ client_ID: long" style="text;strokeColor=none;fillColor=none;align=left;verticalAlign=top;spacingLeft=4;spacingRight=4;overflow=hidden;rotatable=0;points=[[0,0.5],[1,0.5]];portConstraint=eastwest;whiteSpace=wrap;html=1;" vertex="1" parent="wMpl_X3hOaTr-WB6agX8-24">
          <mxGeometry y="26" width="200" height="26" as="geometry" />
        </mxCell>
        <mxCell id="wMpl_X3hOaTr-WB6agX8-26" value="+ NIT: INT" style="text;strokeColor=none;fillColor=none;align=left;verticalAlign=top;spacingLeft=4;spacingRight=4;overflow=hidden;rotatable=0;points=[[0,0.5],[1,0.5]];portConstraint=eastwest;whiteSpace=wrap;html=1;" vertex="1" parent="wMpl_X3hOaTr-WB6agX8-24">
          <mxGeometry y="52" width="200" height="26" as="geometry" />
        </mxCell>
        <mxCell id="wMpl_X3hOaTr-WB6agX8-27" value="+ company_name: String (50)" style="text;strokeColor=none;fillColor=none;align=left;verticalAlign=top;spacingLeft=4;spacingRight=4;overflow=hidden;rotatable=0;points=[[0,0.5],[1,0.5]];portConstraint=eastwest;whiteSpace=wrap;html=1;" vertex="1" parent="wMpl_X3hOaTr-WB6agX8-24">
          <mxGeometry y="78" width="200" height="26" as="geometry" />
        </mxCell>
        <mxCell id="wMpl_X3hOaTr-WB6agX8-28" value="+ country: String (50)" style="text;strokeColor=none;fillColor=none;align=left;verticalAlign=middle;spacingLeft=4;spacingRight=4;overflow=hidden;points=[[0,0.5],[1,0.5]];portConstraint=eastwest;rotatable=0;whiteSpace=wrap;html=1;" vertex="1" parent="wMpl_X3hOaTr-WB6agX8-24">
          <mxGeometry y="104" width="200" height="30" as="geometry" />
        </mxCell>
        <mxCell id="wMpl_X3hOaTr-WB6agX8-29" value="+ department: String (50)" style="text;strokeColor=none;fillColor=none;align=left;verticalAlign=middle;spacingLeft=4;spacingRight=4;overflow=hidden;points=[[0,0.5],[1,0.5]];portConstraint=eastwest;rotatable=0;whiteSpace=wrap;html=1;" vertex="1" parent="wMpl_X3hOaTr-WB6agX8-24">
          <mxGeometry y="134" width="200" height="30" as="geometry" />
        </mxCell>
        <mxCell id="wMpl_X3hOaTr-WB6agX8-30" value="+ city: String (50)" style="text;strokeColor=none;fillColor=none;align=left;verticalAlign=middle;spacingLeft=4;spacingRight=4;overflow=hidden;points=[[0,0.5],[1,0.5]];portConstraint=eastwest;rotatable=0;whiteSpace=wrap;html=1;" vertex="1" parent="wMpl_X3hOaTr-WB6agX8-24">
          <mxGeometry y="164" width="200" height="30" as="geometry" />
        </mxCell>
        <mxCell id="wMpl_X3hOaTr-WB6agX8-31" value="+&amp;nbsp;neighborthhood: String (50)" style="text;strokeColor=none;fillColor=none;align=left;verticalAlign=middle;spacingLeft=4;spacingRight=4;overflow=hidden;points=[[0,0.5],[1,0.5]];portConstraint=eastwest;rotatable=0;whiteSpace=wrap;html=1;" vertex="1" parent="wMpl_X3hOaTr-WB6agX8-24">
          <mxGeometry y="194" width="200" height="30" as="geometry" />
        </mxCell>
        <mxCell id="wMpl_X3hOaTr-WB6agX8-32" value="+&amp;nbsp;address: String (50)" style="text;strokeColor=none;fillColor=none;align=left;verticalAlign=middle;spacingLeft=4;spacingRight=4;overflow=hidden;points=[[0,0.5],[1,0.5]];portConstraint=eastwest;rotatable=0;whiteSpace=wrap;html=1;" vertex="1" parent="wMpl_X3hOaTr-WB6agX8-24">
          <mxGeometry y="224" width="200" height="30" as="geometry" />
        </mxCell>
        <mxCell id="wMpl_X3hOaTr-WB6agX8-33" value="+&amp;nbsp;phone: String (10)" style="text;strokeColor=none;fillColor=none;align=left;verticalAlign=middle;spacingLeft=4;spacingRight=4;overflow=hidden;points=[[0,0.5],[1,0.5]];portConstraint=eastwest;rotatable=0;whiteSpace=wrap;html=1;" vertex="1" parent="wMpl_X3hOaTr-WB6agX8-24">
          <mxGeometry y="254" width="200" height="30" as="geometry" />
        </mxCell>
        <mxCell id="wMpl_X3hOaTr-WB6agX8-34" value="+&amp;nbsp;email: String (50)" style="text;strokeColor=none;fillColor=none;align=left;verticalAlign=middle;spacingLeft=4;spacingRight=4;overflow=hidden;points=[[0,0.5],[1,0.5]];portConstraint=eastwest;rotatable=0;whiteSpace=wrap;html=1;" vertex="1" parent="wMpl_X3hOaTr-WB6agX8-24">
          <mxGeometry y="284" width="200" height="30" as="geometry" />
        </mxCell>
        <mxCell id="wMpl_X3hOaTr-WB6agX8-35" value="+ active: Boolean" style="text;strokeColor=none;fillColor=none;align=left;verticalAlign=middle;spacingLeft=4;spacingRight=4;overflow=hidden;points=[[0,0.5],[1,0.5]];portConstraint=eastwest;rotatable=0;whiteSpace=wrap;html=1;" vertex="1" parent="wMpl_X3hOaTr-WB6agX8-24">
          <mxGeometry y="314" width="200" height="30" as="geometry" />
        </mxCell>
        <mxCell id="wMpl_X3hOaTr-WB6agX8-36" value="" style="line;strokeWidth=1;fillColor=none;align=left;verticalAlign=middle;spacingTop=-1;spacingLeft=3;spacingRight=3;rotatable=0;labelPosition=right;points=[];portConstraint=eastwest;strokeColor=inherit;" vertex="1" parent="wMpl_X3hOaTr-WB6agX8-24">
          <mxGeometry y="344" width="200" height="8" as="geometry" />
        </mxCell>
        <mxCell id="wMpl_X3hOaTr-WB6agX8-37" value="+ Create(POST): Create vehicle" style="text;strokeColor=none;fillColor=none;align=left;verticalAlign=top;spacingLeft=4;spacingRight=4;overflow=hidden;rotatable=0;points=[[0,0.5],[1,0.5]];portConstraint=eastwest;whiteSpace=wrap;html=1;" vertex="1" parent="wMpl_X3hOaTr-WB6agX8-24">
          <mxGeometry y="352" width="200" height="26" as="geometry" />
        </mxCell>
        <mxCell id="wMpl_X3hOaTr-WB6agX8-38" value="+ List(GET): FindyById" style="text;strokeColor=none;fillColor=none;align=left;verticalAlign=top;spacingLeft=4;spacingRight=4;overflow=hidden;rotatable=0;points=[[0,0.5],[1,0.5]];portConstraint=eastwest;whiteSpace=wrap;html=1;" vertex="1" parent="wMpl_X3hOaTr-WB6agX8-24">
          <mxGeometry y="378" width="200" height="26" as="geometry" />
        </mxCell>
        <mxCell id="wMpl_X3hOaTr-WB6agX8-39" value="+ Modify(PUT):Modify object" style="text;strokeColor=none;fillColor=none;align=left;verticalAlign=top;spacingLeft=4;spacingRight=4;overflow=hidden;rotatable=0;points=[[0,0.5],[1,0.5]];portConstraint=eastwest;whiteSpace=wrap;html=1;" vertex="1" parent="wMpl_X3hOaTr-WB6agX8-24">
          <mxGeometry y="404" width="200" height="26" as="geometry" />
        </mxCell>
        <mxCell id="wMpl_X3hOaTr-WB6agX8-40" value="+ Modify(PATCH): Modify attribute" style="text;strokeColor=none;fillColor=none;align=left;verticalAlign=top;spacingLeft=4;spacingRight=4;overflow=hidden;rotatable=0;points=[[0,0.5],[1,0.5]];portConstraint=eastwest;whiteSpace=wrap;html=1;" vertex="1" parent="wMpl_X3hOaTr-WB6agX8-24">
          <mxGeometry y="430" width="200" height="26" as="geometry" />
        </mxCell>
        <mxCell id="wMpl_X3hOaTr-WB6agX8-41" value="+ Delete(DELETE): Delete objects" style="text;strokeColor=none;fillColor=none;align=left;verticalAlign=top;spacingLeft=4;spacingRight=4;overflow=hidden;rotatable=0;points=[[0,0.5],[1,0.5]];portConstraint=eastwest;whiteSpace=wrap;html=1;" vertex="1" parent="wMpl_X3hOaTr-WB6agX8-24">
          <mxGeometry y="456" width="200" height="26" as="geometry" />
        </mxCell>
        <mxCell id="9hNJUhvh3VTDX919A3ip-166" value="Relation" style="endArrow=open;html=1;endSize=12;startArrow=diamondThin;startSize=14;startFill=0;edgeStyle=orthogonalEdgeStyle;rounded=0;exitX=0.524;exitY=1.099;exitDx=0;exitDy=0;exitPerimeter=0;entryX=0.5;entryY=0;entryDx=0;entryDy=0;" parent="1" source="9hNJUhvh3VTDX919A3ip-50" target="wMpl_X3hOaTr-WB6agX8-1" edge="1">
          <mxGeometry relative="1" as="geometry">
            <mxPoint x="585.25" y="233" as="sourcePoint" />
            <mxPoint x="810" y="30" as="targetPoint" />
            <Array as="points">
              <mxPoint x="800" y="-255" />
            </Array>
          </mxGeometry>
        </mxCell>
        <mxCell id="9hNJUhvh3VTDX919A3ip-167" value="0..n" style="edgeLabel;resizable=0;html=1;align=left;verticalAlign=top;" parent="9hNJUhvh3VTDX919A3ip-166" connectable="0" vertex="1">
          <mxGeometry x="-1" relative="1" as="geometry" />
        </mxCell>
        <mxCell id="9hNJUhvh3VTDX919A3ip-168" value="1" style="edgeLabel;resizable=0;html=1;align=right;verticalAlign=top;" parent="9hNJUhvh3VTDX919A3ip-166" connectable="0" vertex="1">
          <mxGeometry x="1" relative="1" as="geometry" />
        </mxCell>
        <mxCell id="9hNJUhvh3VTDX919A3ip-172" value="Relation" style="endArrow=open;html=1;endSize=12;startArrow=diamondThin;startSize=14;startFill=0;edgeStyle=orthogonalEdgeStyle;rounded=0;entryX=0.5;entryY=0;entryDx=0;entryDy=0;" parent="1" target="wMpl_X3hOaTr-WB6agX8-1" edge="1">
          <mxGeometry relative="1" as="geometry">
            <mxPoint x="1090.0485714285714" y="-29.999999999999773" as="sourcePoint" />
            <mxPoint x="809.995" y="28" as="targetPoint" />
            <Array as="points">
              <mxPoint x="1090" y="18" />
              <mxPoint x="800" y="18" />
            </Array>
          </mxGeometry>
        </mxCell>
        <mxCell id="9hNJUhvh3VTDX919A3ip-173" value="0..n" style="edgeLabel;resizable=0;html=1;align=left;verticalAlign=top;" parent="9hNJUhvh3VTDX919A3ip-172" connectable="0" vertex="1">
          <mxGeometry x="-1" relative="1" as="geometry" />
        </mxCell>
        <mxCell id="9hNJUhvh3VTDX919A3ip-174" value="1" style="edgeLabel;resizable=0;html=1;align=right;verticalAlign=top;" parent="9hNJUhvh3VTDX919A3ip-172" connectable="0" vertex="1">
          <mxGeometry x="1" relative="1" as="geometry" />
        </mxCell>
      </root>
    </mxGraphModel>
  </diagram>
</mxfile>
